<svg xmlns="http://www.w3.org/2000/svg" width="397" height="450" viewBox="0 0 397 450" fill="none">
  <g filter="url(#filter0_d_39718_56013)">
    <path d="M213.422 146.973C212.775 146.146 211.23 145.769 210.403 146.595C207.168 149.81 203.915 153.043 200.123 155.612C197.445 157.426 191.892 160.946 189.196 157.534C187.867 155.863 187.777 153.654 187.974 151.607C187.974 151.499 188.01 151.391 188.01 151.301C192.719 146.362 196.529 140.615 198.2 133.915C198.56 132.478 197.643 130.646 195.882 131.006C191.659 131.85 188.567 134.903 186.734 138.675C185.728 140.758 185.153 143.021 184.686 145.266C184.398 146.613 184.11 147.978 183.877 149.361C183.446 149.775 183.014 150.188 182.583 150.601C179.743 153.223 176.652 155.576 173.471 157.749C170.901 159.509 167.577 161.844 164.288 161.449C163.066 161.305 162.275 160.677 161.79 159.832C164.054 157.318 166.049 154.57 167.72 151.589C168.835 149.613 169.823 147.565 170.614 145.446C171.369 143.47 172.249 141.225 172.321 139.088C172.393 137.04 171.674 134.885 169.571 134.131C167.253 133.305 164.881 135.029 163.299 136.573C160.1 139.681 158.519 143.83 157.62 148.122C156.937 151.391 156.272 155.288 156.883 158.719C155.697 159.886 154.457 160.982 153.163 161.988C152.103 162.814 150.863 163.856 149.533 164.359C149.353 162.185 145.741 161.988 145.292 164.448C145.166 165.113 145.058 165.777 144.932 166.442C144.717 167.663 145.741 168.543 146.801 168.795C149.479 169.405 151.977 168.04 154.134 166.568C155.733 165.472 157.225 164.233 158.645 162.94C160.963 165.831 165.025 166.262 168.655 165.149C172.878 163.856 176.67 160.91 180.121 158.252C181.343 157.318 182.547 156.33 183.715 155.324C184.254 158.539 185.944 161.575 189.196 162.76C193.546 164.341 198.236 161.934 201.848 159.635C206.036 156.995 209.54 153.456 213.009 149.972C213.818 149.146 214.159 147.961 213.386 146.955L213.422 146.973ZM163.353 144.063C163.982 142.59 164.809 141.189 165.923 140.04C166.444 139.501 167.037 138.998 167.666 138.585C167.72 138.549 167.846 138.495 167.954 138.441C167.9 138.226 167.864 137.921 167.882 137.921C167.882 137.921 167.99 138.19 167.99 138.208C167.99 138.28 167.99 138.352 167.972 138.423C168.098 138.765 168.026 138.693 167.972 138.477C167.756 141.692 166.337 144.889 164.917 147.763C163.874 149.864 162.616 151.858 161.215 153.762C161.52 150.457 162.059 147.134 163.371 144.063H163.353ZM190.257 141.495C190.724 140.327 191.317 139.178 192.072 138.19C191.533 139.321 190.922 140.417 190.257 141.495Z" fill="#FFB319" />
    <path d="M237.306 139.716C227.602 140.866 218.239 145.356 210.996 151.876C207.33 155.181 204.131 159.006 201.633 163.263C198.901 167.933 196.888 173.087 193.312 177.218C190.167 180.882 184.775 183.594 180.067 181.367C178.359 180.559 176.454 182.624 177.227 184.277C178.881 187.779 180.408 191.371 182.223 194.784C183.499 197.208 187.291 195.7 186.195 193.095C185.279 190.886 184.254 188.731 183.212 186.576C186.555 186.666 189.897 185.444 192.719 183.558C197.266 180.523 199.979 175.62 202.459 170.896C204.886 166.262 207.402 161.862 210.96 158C214.195 154.498 218.077 151.463 222.246 149.164C227.134 146.47 232.364 144.745 237.882 143.883C240.577 143.47 239.984 139.393 237.271 139.716H237.306Z" fill="black" />
    <path d="M213.512 280.438C211.248 272.284 209.235 264.058 207.15 255.85C202.406 255.904 197.841 254.557 193.707 252.15C185.225 247.211 179.653 238.302 177.784 228.801C177.083 225.299 176.85 221.743 176.958 218.204C177.012 216.66 177.119 215.115 177.299 213.589C178.036 206.907 179.851 200.28 182.026 193.994C182.942 191.353 186.932 192.952 186.051 195.574C184.182 201.088 182.655 206.746 181.9 212.511C181.864 212.744 181.846 212.978 181.81 213.211C181.648 214.523 181.54 215.834 181.469 217.163C181.055 225.514 182.637 233.992 187.741 240.817C192.575 247.283 200.213 252.15 208.534 251.342C209.846 251.216 210.744 252.024 211.068 253.246C213.296 261.921 215.669 270.56 217.735 279.289C218.31 281.713 214.195 282.845 213.512 280.456V280.438Z" fill="black" />
    <path d="M212.847 178.781C212.775 178.26 212.452 177.685 212.02 177.38C211.571 177.075 210.996 176.877 210.439 176.985C210.079 177.057 209.684 177.2 209.379 177.452L208.983 177.685C208.678 177.919 208.462 178.224 208.318 178.583C207.707 179.787 207.096 180.99 206.503 182.193C206.287 182.624 206.323 183.361 206.521 183.792C206.737 184.223 207.024 184.564 207.456 184.798C207.851 185.013 208.318 185.139 208.786 185.067C209.307 184.977 209.9 184.708 210.187 184.241C210.942 182.948 211.733 181.673 212.47 180.361C212.649 180.128 212.775 179.876 212.811 179.589C212.901 179.32 212.919 179.05 212.865 178.781H212.847Z" fill="black" />
    <path d="M233.497 175.368C231.196 166.513 222.264 160.299 213.153 161.251C212.02 161.377 211.194 162.544 211.355 163.658C211.535 164.843 212.613 165.562 213.764 165.454C220.844 164.807 227.422 169.746 229.381 176.518C229.669 177.541 231.016 178.008 231.951 177.739C232.885 177.469 233.784 176.428 233.514 175.368H233.497Z" fill="black" />
    <path d="M191.82 200.298C191.461 199.866 190.958 199.525 190.383 199.489C189.79 199.453 189.34 199.615 188.837 199.92C186.321 201.429 183.895 203.099 181.433 204.698C180.516 205.291 180.372 206.835 181.055 207.643C181.846 208.577 183.014 208.649 184.003 208.021C186.483 206.44 189.017 204.931 191.443 203.279C192.359 202.65 192.539 201.142 191.82 200.298Z" fill="black" />
    <path d="M239.751 181.403C233.317 176.823 229.129 169.19 229.093 161.233C229.04 153.205 233.083 145.5 239.517 140.776C241.728 139.142 239.122 135.819 236.911 137.417C230.998 141.674 226.955 148.068 225.391 155.162C223.81 162.257 225.248 169.729 228.914 175.961C230.387 178.457 232.238 180.72 234.359 182.678C228.608 186.019 224.511 192.251 224.151 198.933C223.702 207.123 228.5 214.9 235.833 218.438C238.367 219.659 239.966 215.582 237.432 214.361C231.825 211.649 228.051 205.291 228.536 199.04C229.04 192.754 233.407 187.276 239.301 185.193C240.865 184.636 241.063 182.355 239.769 181.421L239.751 181.403Z" fill="black" />
    <path d="M259.286 216.929C257.309 212.493 253.229 209.063 248.305 208.578C243.075 208.075 237.486 210.679 235.24 215.564C234.251 217.702 237.72 219.713 238.924 217.612C240.595 214.702 243.435 212.906 246.849 212.87C250.246 212.834 253.229 214.882 254.829 217.827C258.603 224.832 253.93 232.753 246.813 235.07C242.159 236.578 237.666 235.375 233.55 233.058C231.178 231.729 228.77 234.674 230.962 236.524C235.006 239.919 241.404 240.871 246.436 239.757C251.414 238.644 255.907 235.537 258.459 231.082C260.939 226.736 261.353 221.527 259.286 216.929Z" fill="black" />
    <path d="M249.905 220.342C249.365 219.21 248.215 218.815 247.065 219.192C243.507 220.36 240.002 221.671 236.48 222.91C235.419 223.287 234.862 224.724 235.33 225.73C235.851 226.844 237.019 227.275 238.151 226.88C241.692 225.658 245.25 224.491 248.754 223.18C249.815 222.785 250.39 221.366 249.905 220.342Z" fill="black" />
    <path d="M237.414 249.689C233.155 256.388 225.751 259.585 219.658 264.237C214.716 268.009 209.594 274.726 212.919 281.138C213.692 282.629 212.2 284.299 210.672 284.138C204.221 283.473 197.499 286.185 193.474 291.322C190.994 294.501 189.628 298.434 189.484 302.404C189.412 304.056 189.556 305.69 189.897 307.307C188.603 308.061 187.291 308.833 185.979 309.588C185.548 308.061 185.279 306.499 185.171 304.936C184.757 299.189 186.357 293.298 189.969 288.7C194.246 283.222 200.932 279.971 207.815 279.701C207.222 276.899 207.599 273.918 208.642 271.206C211.499 263.734 218.382 259.747 224.726 255.562C230.405 251.808 237.36 246.061 235.833 238.374C235.294 235.698 239.481 235.105 240.02 237.763C240.883 241.948 239.625 246.115 237.36 249.653L237.414 249.689Z" fill="black" />
    <path d="M353.385 275.211C350.061 278.929 345.388 280.779 340.5 279.414C337.876 278.678 339.026 274.223 341.65 274.798C343.393 275.193 345.029 274.996 346.592 274.116C349.881 272.284 352.073 268.404 352.002 264.65C351.912 259.998 349.378 255.778 346.502 252.275C343.393 248.504 339.583 245.414 336.079 242.038C332.341 238.428 329.016 234.566 326.841 229.807C322.636 220.647 322.726 210.319 321.755 200.495C320.964 192.484 318.97 184.761 315.717 177.433C315.321 176.535 314.908 175.655 314.477 174.775C313.578 172.943 312.626 171.165 311.583 169.423C303.514 155.773 291.221 144.601 276.61 138.315C271.381 136.07 265.899 134.436 260.31 133.412C258.765 133.125 257.201 132.891 255.638 132.712C243.525 131.239 231.052 132.604 219.64 136.825C210.906 140.057 202.316 144.925 196.583 152.432C190.976 159.742 188.585 169.926 192.575 178.547C193.725 181.026 189.843 182.642 188.675 180.199C187.597 177.918 186.86 175.458 186.519 172.961C185.081 162.562 189.754 152.54 197.032 145.356C204.257 138.225 213.961 133.61 223.648 130.844C233.694 127.988 244.279 127.072 254.667 128.132C256.213 128.275 257.758 128.473 259.286 128.724C268.074 130.089 276.628 132.891 284.5 137.112C295.283 142.913 304.592 151.175 311.745 161.035C313.273 163.137 314.71 165.31 316.04 167.555C318.269 171.327 320.21 175.278 321.809 179.373C323.552 183.845 324.936 188.497 325.907 193.203C326.949 198.25 327.344 203.405 327.83 208.523C328.297 213.606 328.8 218.815 330.364 223.682C331.963 228.675 334.677 232.86 338.307 236.632C345.496 244.139 354.967 250.461 357.052 261.363C358.004 266.267 356.764 271.403 353.403 275.175L353.385 275.211Z" fill="black" />
    <path d="M359.118 319.826C357.249 327.549 352.99 334.338 346.898 339.439C335.575 348.94 318.808 352.011 305.078 346.264C300.782 351.652 294.187 355.01 287.358 355.837C280.672 356.627 273.663 355.082 268.326 350.898C262 345.958 258.387 338.523 255.602 331.177C252.223 322.322 249.168 313.324 245.987 304.397C243.974 298.776 241.943 293.154 239.93 287.514C239.319 285.808 238.708 284.102 238.097 282.414C239.966 282.773 241.817 283.366 243.597 284.282C244.064 285.593 244.531 286.904 244.998 288.215C246.921 293.585 248.844 298.973 250.785 304.344C253.822 312.821 256.716 321.37 259.969 329.776C262.521 336.385 265.702 343.228 271.543 347.557C281.032 354.579 295.948 351.796 302.49 342.079C303.011 341.289 304.287 340.911 305.149 341.307C312.266 344.701 320.282 345.33 327.938 343.659C341.506 340.696 352.846 330.315 355.165 316.377C357.447 302.673 351.84 288.107 340.392 280.061C338.127 278.462 340.679 275.14 342.962 276.63C350.222 281.39 355.488 288.987 358.112 297.195C360.448 304.487 360.915 312.336 359.1 319.79L359.118 319.826Z" fill="black" />
    <path d="M245.034 288.233C244.459 288.879 243.614 289.203 242.734 288.736C241.817 288.251 240.883 287.856 239.948 287.532C229.327 283.904 218.472 290.604 209.378 295.92C202.891 299.71 196.421 303.499 189.933 307.289C188.639 308.043 187.327 308.816 186.015 309.57C172.68 317.365 159.327 325.16 145.993 332.973C131.22 341.612 116.465 350.323 101.674 358.944C100.273 359.77 98.8888 360.56 97.4871 361.386C92.5089 364.278 87.5308 367.152 82.5347 370.007C80.414 371.229 78.2934 367.547 80.3601 366.308C85.8774 363.021 91.4127 359.752 96.9659 356.501C98.3677 355.675 99.7515 354.885 101.153 354.058C106.401 351.005 111.649 347.952 116.878 344.881C138.373 332.308 159.867 319.718 181.379 307.145C182.655 306.409 183.931 305.655 185.207 304.9C186.644 304.056 188.082 303.212 189.502 302.368C197.481 297.644 205.461 292.885 213.566 288.358C220.916 284.263 229.776 280.815 238.115 282.395C239.984 282.755 241.835 283.347 243.614 284.263C244.028 284.461 244.423 284.677 244.819 284.928C246.077 285.664 245.861 287.263 245.016 288.197L245.034 288.233Z" fill="black" />
    <path d="M52.2346 211.649C52.1088 212.708 51.0125 213.732 49.8983 213.499C44.6506 212.439 39.4388 211.272 34.2091 210.158C32.4299 209.763 30.2193 208.991 28.4042 209.494C27.1103 209.853 26.5352 211.038 26.3195 212.277C26.032 213.894 26.1757 215.528 26.3734 217.145C26.607 219.174 26.9485 221.204 27.6314 223.126C28.7816 226.359 30.9382 229.52 34.3708 230.597C35.1615 230.849 36.0242 230.921 36.8689 230.831C38.7918 230.633 40.6249 229.556 41.3797 227.724C41.5954 227.203 41.9189 226.844 42.3143 226.646C41.6673 229.125 41.0922 231.675 40.7148 234.207C39.313 234.872 37.7495 235.213 36.168 235.213C35.1615 235.213 34.1372 235.069 33.1487 234.8C28.4761 233.453 25.1513 229.268 23.5698 224.85C22.6892 222.353 22.222 219.731 21.9165 217.091C21.7008 214.989 21.6289 212.87 22.1321 210.823C22.6713 208.649 23.9113 206.746 25.9601 205.722C28.2065 204.608 30.7944 204.967 33.1667 205.47C38.8996 206.71 44.6326 207.967 50.3656 209.296C51.4798 209.565 52.3604 210.392 52.2346 211.631V211.649Z" fill="black" />
    <path d="M49.5567 261.435C49.1613 262.585 47.7775 263.411 46.7172 262.818C40.7326 259.496 37.2461 252.671 36.2037 245.504C35.7005 242.074 35.7724 238.625 36.2037 235.213C36.3655 233.74 36.6171 232.285 36.9046 230.831C37.6594 227.023 38.7377 223.269 39.7801 219.623C40.6248 216.678 44.5785 218.456 43.7878 221.365C43.3025 223.107 42.8173 224.868 42.35 226.646C41.7031 229.124 41.128 231.675 40.7506 234.207C40.2653 237.44 40.0856 240.691 40.463 243.96C41.1459 249.635 43.626 255.472 48.3346 258.292C49.377 258.921 50.0599 260.106 49.5746 261.453L49.5567 261.435Z" fill="black" />
    <path d="M40.4451 219.641C38.1447 218.941 35.8443 218.24 33.544 217.54C33.0048 217.378 32.4836 217.342 31.9625 217.558C31.4772 217.755 30.992 218.222 30.8123 218.725C30.4708 219.749 30.8842 221.096 31.9984 221.455C34.2808 222.192 36.5812 222.91 38.8636 223.628C39.4027 223.79 39.9419 223.826 40.481 223.61C40.9663 223.395 41.4695 222.928 41.6492 222.425C42.0086 221.383 41.5773 220 40.4271 219.641H40.4451Z" fill="black" />
    <path d="M57.1946 206.943C56.9251 206.943 56.6375 206.907 56.3679 206.889C55.5772 206.853 54.9482 206.278 54.6427 205.578C52.3782 204.141 50.1138 202.704 47.8314 201.267C45.4052 199.723 42.9791 197.855 40.2654 196.849C40.1036 196.795 39.9419 196.741 39.7981 196.687C38.1806 196.202 36.707 196.454 35.5029 197.424C35.0895 197.729 34.6941 198.16 34.3527 198.663C32.7891 200.908 32.6813 203.872 32.4836 206.512C32.268 209.242 28.0446 208.757 28.2423 206.027C28.4939 202.507 28.9073 198.896 31.01 195.951C31.9445 194.658 33.1666 193.598 34.5683 192.933C35.8803 192.305 37.336 192.017 38.8636 192.143C38.9534 192.143 39.0253 192.143 39.0972 192.161C42.7454 192.556 45.9084 194.945 48.9097 196.831C52.1985 198.914 55.4694 200.98 58.7402 203.063C60.6991 204.303 59.1715 207.051 57.1946 206.961V206.943Z" fill="black" />
    <path d="M69.5771 198.052C65.0663 192.467 59.3692 186.989 52.1806 185.336C45.8186 183.864 38.5401 186.558 36.0061 192.88C34.9817 195.412 38.9355 196.975 39.9599 194.424C41.9368 189.575 47.8494 188.39 52.4142 189.844C58.3089 191.73 62.029 196.436 66.1625 200.711C68.0495 202.668 71.3743 200.28 69.5771 198.052Z" fill="black" />
    <path d="M117.759 126.246C116.735 130.539 113.087 133.161 109.187 134.724C104.514 136.591 99.5 137.813 94.6836 139.268C89.364 140.884 84.0623 142.518 78.7427 144.135C76.3705 144.853 73.9802 145.59 71.608 146.308C70.2421 146.721 68.8763 147.152 67.5104 147.565C67.0612 146.344 66.4322 145.231 65.5156 144.368C63.8982 142.896 60.6093 142.572 60.214 145.266C59.9983 146.667 60.2679 148.194 60.5195 149.649C59.1357 150.026 57.6979 150.331 56.2602 150.475C54.1755 150.691 52.0908 150.529 50.1498 149.685C45.603 147.709 44.3989 143.057 43.3206 138.657C42.5838 135.568 41.829 132.496 41.0742 129.407C40.9304 128.94 40.8046 128.491 40.6608 128.042C38.3784 120.876 36.3117 113.62 34.5505 106.31C33.5081 102.053 29.8958 94.0427 31.7289 89.7861C34.5145 83.3202 44.9381 81.9912 50.9047 80.9315C61.1665 79.1175 71.3743 76.9622 81.6002 74.8608C84.2241 74.322 86.8479 73.7293 89.4898 73.2443C91.7722 72.8133 94.1804 72.5259 96.4987 72.9031C101.135 73.6754 104.119 76.9981 105.826 81.165C106.473 82.7455 107.048 84.344 107.551 85.9964C108.001 87.4153 108.414 88.8521 108.827 90.289C107.407 90.5584 105.97 90.8817 104.55 91.2229C103.184 91.5642 101.585 92.0311 100.578 93.0729C99.9852 93.6656 99.4281 94.7791 99.7516 95.6412C100.111 96.5752 101.423 96.7189 102.25 96.7907C103.777 96.9344 105.305 96.8266 106.832 96.7907C108.126 96.7728 109.402 96.7548 110.696 96.7368C111.128 98.1916 111.577 99.6464 112.026 101.101C113.087 104.586 114.147 108.088 115.207 111.572C116.609 116.17 118.927 121.361 117.759 126.246Z" fill="#95F1D5" />
    <path d="M101.693 358.98C100.291 359.806 98.907 360.596 97.5052 361.422C97.3434 359.806 97.1637 358.172 96.984 356.555C95.3666 341.181 93.6053 325.842 91.7363 310.504C90.8557 303.32 89.9391 296.136 88.9866 288.969C88.8069 287.496 88.6092 286.006 88.4115 284.533C87.2254 275.571 85.9854 266.608 84.7094 257.664C83.9007 251.988 83.074 246.313 82.2293 240.637C82.0136 239.2 81.798 237.764 81.5823 236.327C80.0008 225.766 78.3474 215.223 76.6401 204.698C75.2024 195.843 72.6684 175.781 71.1408 166.945C70.404 162.598 69.6312 158.27 68.8584 153.941C68.5169 152.002 68.2653 149.631 67.5285 147.583C67.0792 146.362 66.4502 145.248 65.5336 144.386C63.9162 142.913 60.6274 142.59 60.232 145.284C60.0163 146.685 60.2859 148.212 60.5375 149.667C60.6274 150.134 60.6993 150.583 60.7532 151.032L61.6697 157.695C62.8738 166.496 65.1383 186.504 66.2525 195.323C66.6119 198.053 62.4245 198.663 62.0292 195.933C61.6877 193.634 61.3822 191.317 61.0587 189.018C59.8187 179.912 57.5542 159.886 56.2782 150.493C56.2603 150.367 56.2423 150.241 56.2243 150.116C55.7211 146.452 55.2359 142.015 58.974 139.842C61.8135 138.19 65.6774 138.854 68.1395 140.902C69.8648 142.339 70.9251 144.26 71.626 146.344C72.1472 147.853 72.4707 149.433 72.7582 150.96C73.6029 155.486 74.3757 160.012 75.1664 164.556C76.7659 173.734 79.3718 194.137 80.8634 203.333C82.6067 214.002 84.296 224.652 85.8955 235.339C86.1112 236.776 86.3448 238.23 86.5425 239.649C87.5129 246.043 88.4475 252.455 89.3461 258.849C90.4962 266.896 91.5925 274.924 92.6528 282.97C92.8505 284.443 93.0482 285.934 93.2459 287.425C94.4141 296.351 95.5463 305.313 96.6246 314.258C98.242 327.531 99.7516 340.822 101.153 354.13C101.333 355.747 101.495 357.381 101.675 358.998L101.693 358.98Z" fill="black" />
    <path d="M218.328 374.623C215.92 375.97 213.512 377.299 211.086 378.611C191.605 389.243 171.656 399.068 151.474 408.353C141.392 413.005 131.238 417.477 121.012 421.806C115.908 423.961 110.786 426.152 105.61 428.164C100.614 430.104 95.4743 431.846 90.1547 432.654C84.907 433.444 79.4975 433.247 74.4834 431.451C70.314 429.978 66.6658 427.41 63.5387 424.32C56.6915 417.477 53.223 408.192 51.6415 398.816C50.7609 393.554 50.4374 388.219 50.1858 382.903C49.9342 377.228 49.7005 371.534 49.4849 365.876C49.0356 354.184 48.5863 342.492 48.119 330.799C47.7596 322.017 47.3822 313.234 47.0228 304.451L46.8431 299.889C46.3039 286.993 45.8007 274.098 45.3155 261.184C45.2795 260.034 45.8906 258.975 47.1126 258.795C48.173 258.651 49.4489 259.442 49.5029 260.591C49.6466 263.375 49.7724 266.159 49.8982 268.961C50.3655 278.731 50.7788 288.502 51.1922 298.291C51.2461 299.817 51.318 301.326 51.3899 302.853C51.8571 314.311 52.3424 325.77 52.8636 337.229C53.3847 348.562 53.9059 359.896 54.3911 371.229C54.8584 381.915 54.7865 392.907 57.4104 403.342C59.4951 411.568 63.8442 419.597 70.979 424.464C79.2819 430.14 89.5077 428.828 98.5475 425.811C103.687 424.105 108.683 421.95 113.68 419.884C118.694 417.801 123.69 415.663 128.668 413.508C138.624 409.197 148.509 404.707 158.321 400.091C178.036 390.806 197.427 380.856 216.585 370.474C217.681 369.882 219.119 370.636 219.568 371.678C220.09 372.899 219.425 374.049 218.364 374.659L218.328 374.623Z" fill="black" />
    <path d="M237.396 414.352C228.824 413.688 220.665 410.257 214.249 404.528C208.121 399.068 203.915 391.489 202.262 383.478C201.723 380.82 197.553 381.395 198.074 384.089C200.896 398.475 210.996 410.671 224.726 415.915C228.626 417.406 232.742 418.322 236.911 418.645C239.661 418.861 240.182 414.586 237.396 414.37V414.352Z" fill="black" />
    <path d="M252.546 436.533C248.125 429.655 243.668 422.794 239.229 415.915C238.6 414.945 237.091 414.873 236.228 415.538C235.258 416.292 235.222 417.567 235.851 418.537C240.272 425.416 244.693 432.313 249.132 439.174C249.761 440.162 251.306 440.233 252.169 439.551C253.157 438.779 253.175 437.503 252.546 436.516V436.533Z" fill="black" />
    <path d="M191.389 92.9469C186.806 99.305 181.972 106.148 175.035 110.135C167.684 114.356 158.267 114.302 151.168 109.525C147.484 107.028 144.591 103.544 142.812 99.4666C141.733 96.9521 137.851 98.5865 138.894 101.119C142.506 109.794 150.557 116.098 159.903 117.391C169.751 118.756 178.611 114.302 185.368 107.423C188.927 103.795 191.928 99.7001 194.857 95.5692C196.475 93.3061 193.024 90.7198 191.389 92.9828V92.9469Z" fill="black" />
    <path d="M152.516 100.365C147.646 100.634 142.74 100.58 137.852 100.652C133.125 100.724 128.416 100.814 123.708 100.885C119.808 100.957 115.926 101.029 112.026 101.083C111.739 101.083 111.433 101.083 111.128 101.083C109.043 101.119 106.94 101.155 104.838 101.191C103.184 101.227 101.549 101.245 99.9314 100.832C96.5348 99.9336 94.5758 96.7905 95.4924 93.342C96.4269 89.8038 99.554 87.9898 102.897 87.0917C104.424 86.6786 105.952 86.3015 107.515 85.9782C113.752 84.6311 120.167 83.9127 126.476 83.4098C134.724 82.7453 143.081 82.6734 151.348 83.338C154.08 83.5715 153.559 87.6844 150.863 87.5228C142.596 87.0738 134.347 87.1097 126.098 87.8281C120.311 88.349 114.506 89.1033 108.809 90.2528C107.39 90.5222 105.952 90.8455 104.532 91.1868C103.166 91.528 101.567 91.995 100.56 93.0367C99.9673 93.6294 99.4102 94.743 99.7337 95.6051C100.093 96.539 101.405 96.6827 102.232 96.7546C103.759 96.8982 105.287 96.7905 106.815 96.7546C108.108 96.7366 109.384 96.7186 110.678 96.7007C116.897 96.6109 123.133 96.5031 129.351 96.4133C137.025 96.2876 144.753 95.9104 152.445 96.09C154.889 96.1439 154.925 100.203 152.498 100.347L152.516 100.365Z" fill="black" />
    <path d="M147.179 71.3225C143.243 69.7959 138.319 70.7298 135.03 73.3161C131.741 75.9025 129.89 80.0334 130.124 84.2003C130.178 85.242 131.274 86.0323 132.244 85.9963C133.197 85.9604 134.311 85.2061 134.311 84.1464C134.311 82.4042 134.509 81.3625 135.192 79.8718C135.264 79.7101 135.353 79.5485 135.425 79.3868C135.731 78.9019 135.947 78.5607 136.18 78.2553C136.396 77.968 136.647 77.6806 136.899 77.4112C136.953 77.3752 137.043 77.2854 137.097 77.2316C137.258 77.0879 137.42 76.9442 137.6 76.8185C138.714 75.9384 139.99 75.3637 141.356 75.1122C142.237 74.9506 142.776 74.9146 143.495 74.9685C143.872 74.9865 144.249 75.0404 144.609 75.0942C144.609 75.0942 145.04 75.1841 145.022 75.1661C145.184 75.202 145.472 75.2739 145.615 75.3277C146.73 75.6151 147.898 75.2739 148.365 74.1064C148.778 73.0288 148.239 71.7536 147.161 71.3405L147.179 71.3225Z" fill="black" />
    <path d="M149.281 60.2407C145.292 59.0553 140.817 60.1509 137.887 63.1323C134.904 66.1677 133.988 70.5501 135.192 74.5733C135.515 75.6329 137.007 76.1538 137.959 75.7048C139.11 75.166 139.415 74.0704 139.092 72.9388C139.217 73.4238 139.074 72.8131 139.056 72.7054C139.02 72.5078 138.984 72.3102 138.966 72.1127C138.948 71.9331 138.93 71.7714 138.912 71.5918C138.912 71.52 138.912 71.4302 138.912 71.3763C138.912 70.9991 138.948 70.6219 138.984 70.2448C139.002 70.0651 139.038 69.9035 139.056 69.7239C139.074 69.5802 139.128 69.3647 139.11 69.4365C139.271 68.8079 139.487 67.9997 139.882 67.4968C139.541 67.9458 139.972 67.3531 140.044 67.2633C140.134 67.1196 140.242 66.9759 140.35 66.8322C140.457 66.6886 140.565 66.5628 140.673 66.4191C140.691 66.3832 140.907 66.1857 140.979 66.0959C141.086 66.0061 141.23 65.8803 141.248 65.8444C141.374 65.7366 141.518 65.6289 141.644 65.5211C141.769 65.4133 141.913 65.3235 142.057 65.2158C142.129 65.1619 142.219 65.108 142.291 65.0721C142.614 64.9105 142.92 64.7488 143.243 64.6051C143.405 64.5333 143.567 64.4794 143.728 64.4255C143.764 64.4255 144.07 64.3177 144.16 64.2818C144.285 64.2459 144.501 64.21 144.519 64.21C144.681 64.1741 144.86 64.1561 145.022 64.1202C145.202 64.1022 145.364 64.0843 145.543 64.0663C145.579 64.0663 145.885 64.0663 145.993 64.0483C146.118 64.0483 146.334 64.0483 146.37 64.0483C146.55 64.0483 146.712 64.0663 146.891 64.1022C147.071 64.1202 147.233 64.1561 147.394 64.1741C147.484 64.1741 148.221 64.3537 147.7 64.2279C148.778 64.4974 150.072 64.21 150.486 63.0066C150.827 61.9829 150.414 60.564 149.264 60.2227L149.281 60.2407Z" fill="black" />
    <path d="M164.467 50.5959C154.511 45.8723 142.272 52.0687 139.181 62.3242C138.858 63.4198 139.253 64.6412 140.385 65.0722C141.392 65.4673 142.794 64.9644 143.135 63.8688C144.267 60.2049 146.729 56.954 150.144 55.122C154.188 52.9488 158.68 53.0206 162.904 54.5832C165.51 55.5531 166.947 51.7634 164.467 50.578V50.5959Z" fill="black" />
    <path d="M390.982 429.852C391.036 431.217 390.317 432.529 388.825 432.726C387.585 432.888 385.986 431.954 385.932 430.571C385.806 426.027 385.033 395.278 384.908 390.716C383.811 353.987 382.212 317.257 380.505 280.546C378.797 243.834 376.856 207.123 374.718 170.447C373.639 152.037 372.543 133.628 371.411 115.236C370.548 101.227 370.135 86.6608 365.175 73.3699C362.946 67.3711 359.693 61.6237 355.003 57.2054C349.773 52.3021 343.178 49.2668 336.222 47.7581C328.926 46.1775 321.396 45.98 313.974 46.1596C305.419 46.3751 296.883 46.878 288.346 47.2552C285.309 47.3988 282.272 47.5246 279.234 47.6683C277.815 47.7221 276.395 47.8119 274.993 47.8658C265.666 48.2789 255.242 48.8896 244.316 49.5541C242.788 49.6439 241.242 49.7337 239.697 49.8415C213.872 51.44 185.926 53.3259 164.126 54.188C161.412 54.2957 160.765 50.0929 163.515 49.9672C168.062 49.7337 172.627 49.5182 177.156 49.3027C194.66 48.4944 217.412 46.9139 238.87 45.5309C240.47 45.4232 242.051 45.3334 243.615 45.2256C254.901 44.5072 265.666 43.8786 274.957 43.4475C276.377 43.3757 277.797 43.3038 279.198 43.2499C287.07 42.8907 294.924 42.5315 302.795 42.1723C317.676 41.5078 333.814 40.3403 347.688 46.878C360.574 52.9487 367.906 64.9643 371.519 78.327C375.508 93.0727 375.706 108.734 376.695 123.875C377.917 142.518 379.049 161.161 380.127 179.787C382.248 217.073 384.171 254.377 385.86 291.699C387.549 329.004 389.58 392.512 390.982 429.852Z" fill="black" />
    <path d="M313.165 93.1623C313.021 94.4375 311.925 95.0841 310.721 95.1021C303.065 95.156 295.409 94.9943 287.753 94.9404C285.093 94.9225 282.415 94.9045 279.756 94.8866C278.3 94.8866 276.826 94.8686 275.37 94.8506C268.631 94.8147 260.742 94.9404 252.367 95.138C250.893 95.1739 249.419 95.2099 247.928 95.2458C228.824 95.7307 207.887 96.4671 192.809 96.2156C191.641 96.1977 190.796 94.9045 190.922 93.8448C191.065 92.6056 192.144 91.941 193.294 91.941C200.95 91.941 222.156 89.9833 229.812 90.0552C235.527 90.0911 241.26 90.145 246.975 90.1988C248.467 90.1988 249.959 90.2168 251.45 90.2348C257.812 90.2886 264.174 90.3425 270.536 90.3964C272.154 90.3964 273.753 90.4144 275.37 90.4323C276.826 90.4323 278.282 90.4323 279.72 90.4503C290.233 90.4862 300.746 90.4862 311.242 90.7377C312.446 90.7556 313.309 92.0667 313.183 93.1803L313.165 93.1623Z" fill="black" />
    <path d="M316.004 167.573C315.932 170.86 315.825 174.147 315.699 177.434C315.303 176.536 314.89 175.656 314.459 174.776C313.56 172.944 312.608 171.165 311.565 169.423C311.637 166.639 311.691 163.855 311.709 161.054C311.979 138.459 311.008 115.883 309.247 93.3241C309.031 90.5941 313.201 89.9655 313.47 92.7135C314.225 100.293 314.746 107.89 315.178 115.505C316.112 132.837 316.382 150.205 316.004 167.573Z" fill="black" />
    <path d="M279.756 94.8687C278.3 94.8687 276.826 94.8508 275.37 94.8328C275.37 93.36 275.37 91.8693 275.353 90.3965C275.353 89.7679 275.353 89.1213 275.353 88.4927C275.245 74.9504 275.137 61.3901 275.011 47.8478C275.011 46.375 274.993 44.9023 274.975 43.4295C276.395 43.3577 277.815 43.2858 279.216 43.2319C279.216 44.7047 279.252 46.1775 279.252 47.6502C279.252 48.0274 279.252 48.4046 279.252 48.7818C279.342 58.0135 279.414 67.2273 279.504 76.4411C279.54 81.0929 279.63 85.7447 279.684 90.3965C279.702 91.8693 279.72 93.36 279.738 94.8328L279.756 94.8687Z" fill="black" />
    <path d="M93.2458 287.389C91.826 287.91 90.4063 288.431 88.9685 288.969C76.4423 293.585 63.8981 298.201 51.3719 302.817C49.9162 303.356 48.4605 303.895 47.0227 304.415L46.843 299.853C47.4181 299.638 47.9752 299.44 48.5503 299.225C49.4309 298.902 50.3115 298.578 51.1922 298.255C62.8917 293.944 74.5912 289.634 86.2908 285.305C87.0096 285.036 87.7105 284.785 88.4114 284.515C89.8312 283.994 91.2509 283.455 92.6527 282.935C92.8504 284.407 93.0481 285.898 93.2458 287.389Z" fill="black" />
    <path d="M39.7981 196.688C38.1806 196.203 36.707 196.454 35.5029 197.424C35.2692 196.293 35.0356 195.161 34.802 194.03C34.7301 193.67 34.6582 193.293 34.5683 192.934C30.1653 171.525 25.7622 150.098 21.3412 128.689C17.675 110.926 14.0088 93.1627 10.3965 75.3816C10.1089 73.9807 9.8214 72.5978 9.55183 71.1968C9.03065 68.6644 8.50947 66.1319 8.00626 63.5995C7.91641 63.2043 7.93438 62.8631 8.04221 62.5757C8.45556 61.2466 10.2887 60.7976 11.3849 61.6058C11.7444 61.8753 12.0319 62.3063 12.1577 62.8811C12.6789 65.3417 13.1821 67.8023 13.6853 70.2629C13.9728 71.6458 14.2784 73.0468 14.5479 74.4297C16.2912 82.7814 18.0165 91.1331 19.7417 99.5028C24.2347 121.271 28.7276 143.057 33.2205 164.844C35.0895 173.95 36.9765 183.038 38.8456 192.144C39.1691 193.67 39.4746 195.179 39.7981 196.706V196.688Z" fill="black" />
    <path d="M181.9 212.511C181.864 212.744 181.846 212.978 181.81 213.211C181.648 214.522 181.541 215.833 181.469 217.163C179.977 217.522 178.467 217.881 176.958 218.222C165.833 220.844 154.727 223.485 143.602 226.107C124.588 230.597 105.556 235.123 86.5424 239.595C85.1047 239.937 83.667 240.278 82.2293 240.619C82.0136 239.182 81.7979 237.745 81.5823 236.309C83.02 235.967 84.4577 235.626 85.8955 235.285C92.7786 233.65 99.6617 232.016 106.545 230.382C130.124 224.796 153.702 219.192 177.299 213.606C178.827 213.247 180.354 212.888 181.9 212.511Z" fill="black" />
    <path d="M244.315 49.554C242.788 49.6438 241.242 49.7337 239.697 49.8414C239.427 48.4046 239.158 46.9677 238.87 45.5309C237.486 38.3646 235.977 31.2881 234.269 24.6786C234.054 23.7985 233.82 22.9364 233.586 22.0563C233.443 21.5355 233.317 21.0326 233.173 20.5476C229.722 8.13684 227.692 6.23301 215.741 8.17276C207.348 9.53777 199.045 11.6751 190.742 13.4891C159.04 20.4039 127.338 27.3368 95.6361 34.2516C79.7851 37.718 63.9341 41.1844 48.0831 44.6328L24.055 49.8773C20.8381 50.5778 17.3157 51.1705 14.548 53.0923C12.4274 54.583 10.4505 57.3669 11.367 60.0969C11.5468 60.6537 11.5108 61.1746 11.3311 61.5877C10.792 62.8808 8.97682 63.5095 7.98838 62.5575C7.77272 62.36 7.593 62.0906 7.4672 61.7314C6.20919 58.0674 7.37734 54.1699 10.0192 51.386C12.8407 48.4046 16.7765 47.1473 20.6943 46.2313C29.752 44.112 38.8996 42.2261 47.9932 40.2325C81.0611 32.9764 114.111 25.7383 147.179 18.5001C163.713 14.8721 180.247 11.244 196.762 7.61598C204.185 5.99953 211.787 4.95781 219.263 3.62872C228.95 1.9045 234 2.9103 236.624 15.824C236.857 17.0274 237.145 18.2666 237.45 19.5598C237.774 20.9068 238.115 22.2898 238.475 23.7087C240.272 30.875 242.482 38.7777 243.597 45.1896C243.668 45.5488 243.722 45.908 243.776 46.2673C243.938 47.3629 244.118 48.4405 244.297 49.5361L244.315 49.554Z" fill="black" />
    <path d="M260.292 133.43C258.747 133.143 257.183 132.909 255.62 132.73C255.296 131.203 254.955 129.677 254.631 128.15C252.259 117.194 250.03 106.238 247.928 95.2281C247.586 93.5577 247.281 91.8695 246.957 90.1812C248.449 90.1812 249.941 90.1991 251.432 90.2171C251.738 91.8515 252.043 93.4859 252.367 95.1203C253.445 100.688 254.541 106.256 255.674 111.806C256.842 117.463 258.028 123.103 259.25 128.743C259.591 130.305 259.933 131.868 260.292 133.43Z" fill="black" />
    <path d="M238.493 23.7266C237.091 24.0499 235.689 24.3553 234.287 24.6786C217.933 28.3784 201.579 32.0783 185.243 35.7962C153.217 43.0343 121.192 50.2904 89.1662 57.5465C64.2935 63.1682 39.4387 68.8078 14.5659 74.4475C13.1821 74.7707 11.7983 75.0761 10.4145 75.3994C10.1269 73.9984 9.8394 72.6155 9.56982 71.2145C10.9357 70.8913 12.3195 70.6039 13.7033 70.2806C42.6556 63.725 71.6259 57.1693 100.578 50.6137C132.604 43.3576 164.629 36.1015 196.655 28.8454C208.839 26.0795 221.024 23.3136 233.209 20.5656C234.629 20.2423 236.066 19.919 237.486 19.5957C237.81 20.9428 238.151 22.3257 238.511 23.7446L238.493 23.7266Z" fill="black" />
    <path d="M137.995 199.776C135.318 204.446 130.124 206.637 125.182 208.128C119.898 209.727 113.859 211.397 108.36 209.852C102.25 208.146 99.4282 202.884 98.0623 197.1C96.1933 189.18 94.5938 181.187 92.9764 173.213C92.2935 169.872 91.5926 166.531 90.676 163.298C89.9571 160.766 89.8673 158.359 89.3641 155.791C89.3102 155.539 89.2563 155.288 89.2023 155.019C88.9687 153.905 90.1009 152.827 91.1433 152.738C93.2639 150.205 96.4808 148.912 99.554 148.014C106.491 146.002 113.949 144.009 121.012 146.451C127.087 148.553 130.106 153.887 131.723 159.778C133.61 166.603 135.246 173.5 137.007 180.361C138.57 186.45 141.374 193.814 137.959 199.776H137.995Z" fill="#FFB319" />
    <path d="M305.06 143.399C304.269 142.465 303.029 142.339 302.022 143.021L298.536 145.41C297.871 143.524 297.17 141.638 296.487 139.753C296.092 138.693 294.69 138.136 293.684 138.603C292.533 139.142 292.192 140.255 292.533 141.405C293.378 144.225 294.241 147.027 295.085 149.846C295.283 150.493 295.948 150.924 296.559 151.086C297.224 151.247 297.835 151.086 298.392 150.709C298.752 150.583 299.039 150.475 299.291 150.295C301.124 149.056 302.885 147.709 304.664 146.416C305.581 145.751 305.778 144.261 305.042 143.381L305.06 143.399Z" fill="black" />
    <path d="M192.27 181.457C192.27 181.457 176.365 151.804 216.118 135.909C255.871 120.013 289.784 137.489 306.731 158.683C323.696 179.858 323.157 196.292 324.217 204.231C325.278 212.169 321.036 227.005 332.161 234.423C343.285 241.84 358.13 256.658 354.949 265.674C351.768 274.672 342.98 276.684 342.98 276.684C342.98 276.684 375.616 311.222 347.527 333.996C319.437 356.77 302.508 342.115 302.508 342.115C302.508 342.115 273.34 384.843 250.552 310.701C245.879 295.471 240.488 285.808 240.488 285.808C240.488 285.808 227.242 282.629 211.877 291.627C196.511 300.626 185.207 304.954 185.207 304.954C185.207 304.954 189.61 288.448 196.493 285.287C203.376 282.108 209.217 281.587 209.217 281.587C209.217 281.587 204.454 269.931 218.221 262.513C232.005 255.095 234.647 250.857 235.707 246.618C236.767 242.379 237.828 237.081 237.828 237.081C237.828 237.081 259.016 239.721 257.956 222.784C256.896 205.829 240.991 211.667 240.991 211.667L237.396 214.361C237.396 214.361 226.685 214.325 226.685 200.028C226.685 185.731 237.289 182.014 237.289 182.014C237.289 182.014 223.504 171.956 226.164 160.838C228.806 149.72 233.047 143.883 233.047 143.883C233.047 143.883 215.022 145.464 207.078 159.239C199.135 173.015 192.234 181.475 192.234 181.475L192.27 181.457Z" fill="black" />
    <path d="M365.732 261.884C363.072 248.234 348.227 244.193 338.756 236.488C333.563 232.249 329.699 226.287 327.973 219.803C327.686 218.689 326.805 217.827 325.565 218.007C324.523 218.15 323.481 219.3 323.768 220.413C325.224 226.089 327.884 231.369 331.765 235.77C335.935 240.493 341.219 243.601 346.574 246.78C351.408 249.671 356.458 252.868 359.478 257.789C362.227 262.298 362.353 268.135 359.604 272.697C356.512 277.816 350.384 280.276 344.579 279.181C341.758 278.66 341.254 283.078 344.076 283.617C349.917 284.712 356.315 282.827 360.538 278.624C364.869 274.313 366.9 267.901 365.732 261.884Z" fill="black" />
    <path d="M367.655 312.695C367.565 307.936 367.098 303.212 365.786 298.614C363.216 289.58 356.099 280.959 346.161 280.204C343.429 279.989 342.944 284.156 345.675 284.443C353.206 285.197 358.579 291.394 360.987 298.165C362.407 302.134 362.928 306.373 363.126 310.558C363.342 314.85 363.288 319.197 362.605 323.454C361.976 327.351 360.646 331.141 358.327 334.356C356.243 337.265 353.547 339.618 350.546 341.558C344.22 345.617 336.582 347.395 329.142 347.593C324.595 347.718 319.958 347.18 315.555 346.03C310.954 344.827 306.893 342.761 302.597 340.786C300.315 339.726 298.446 343.174 300.459 344.629C304.107 347.269 308.672 348.94 312.985 350.161C317.406 351.4 321.953 352.137 326.536 352.244C335.09 352.424 343.842 350.718 351.319 346.407C358.849 342.061 364.402 335.469 366.469 326.938C367.601 322.286 367.727 317.509 367.637 312.749L367.655 312.695Z" fill="black" />
    <path d="M210.457 278.858C203.017 276.738 195.307 276.092 188.406 280.205C182.367 283.797 178.359 290.263 177.982 297.285C177.766 301.308 178.485 306.05 180.876 309.409C182.349 311.474 185.53 309.48 184.632 307.217C183.895 305.367 183.068 303.697 182.727 301.704C182.385 299.764 182.385 297.824 182.673 295.866C183.212 292.4 184.865 289.149 187.363 286.688C189.771 284.318 192.863 282.557 196.187 281.911C200.608 281.049 205.101 281.929 209.432 282.971C211.751 283.527 212.775 279.522 210.457 278.858Z" fill="black" />
    <path d="M24.9537 59.3608C24.8279 58.9477 24.5942 58.5705 24.3426 58.2292C24.2708 58.1215 24.1809 58.0317 24.091 57.9419C23.8754 57.7264 23.6597 57.4929 23.4081 57.3133C23.1745 57.1336 22.8869 56.99 22.6353 56.8642C22.5095 56.8104 22.3837 56.7385 22.2579 56.7026C21.6469 56.505 21.1437 56.4511 20.4967 56.505C20.3709 56.505 20.2271 56.5409 20.1013 56.5769C19.8138 56.6487 19.5083 56.7206 19.2387 56.8642C19.1309 56.9181 19.041 56.972 18.9511 57.0259C18.7894 57.0977 18.6277 57.1875 18.4479 57.3133C17.801 57.7263 17.2438 58.4987 17.0102 59.235C16.7586 59.9894 16.6687 60.8335 16.8485 61.6058C16.9383 62.001 17.0462 62.3781 17.2438 62.7374C17.5494 63.2941 17.8189 63.6534 18.3042 64.0844C18.394 64.1563 18.4839 64.2281 18.5737 64.282C18.8253 64.4257 19.0949 64.5873 19.3645 64.6951C19.7239 64.8208 20.1373 64.9286 20.5147 64.9465C21.3234 64.9645 22.1501 64.8567 22.851 64.4616C23.0846 64.3359 23.3542 64.1922 23.5699 64.0126C23.8035 63.833 24.0012 63.5995 24.1989 63.3839C24.4684 63.0786 24.6841 62.7194 24.8458 62.3422C24.8998 62.2345 24.9357 62.1267 24.9537 62.0189C25.0256 61.7316 25.1154 61.4262 25.1334 61.1389C25.1693 60.5102 25.0795 60.0073 24.8818 59.3967L24.9537 59.3608Z" fill="#FFB319" />
    <path d="M39.6903 57.2232C39.6004 56.7203 39.5105 56.4329 39.4027 56.1456C39.2589 55.7504 39.0253 55.3732 38.7737 55.032C38.2525 54.3315 37.5157 53.7748 36.707 53.4515C36.5093 53.3796 36.3116 53.3257 36.1139 53.2898C35.8982 53.2359 35.7006 53.1821 35.4669 53.1641C34.8199 53.1282 34.3527 53.2 33.7416 53.4155C33.544 53.4694 33.4002 53.5772 33.2205 53.685C33.0587 53.7748 32.897 53.8646 32.7712 53.9723C32.3039 54.3854 32.0703 54.7087 31.7827 55.2655C31.4413 55.9121 31.4053 56.6664 31.4413 57.3848C31.4592 57.762 31.585 58.1392 31.6929 58.4984C31.8187 58.8576 32.0164 59.1989 32.25 59.4862C32.6274 59.9353 33.0408 60.2406 33.5619 60.492C34.0831 60.7255 34.6223 60.7435 35.1794 60.7255C35.4669 60.6896 35.7185 60.5998 35.9342 60.4381C36.06 60.3843 36.1678 60.3124 36.2756 60.2226C36.4014 60.2226 36.5272 60.2226 36.6351 60.2047C37.0484 60.1508 37.4618 60.043 37.8392 59.8814C38.1088 59.7736 38.3424 59.612 38.594 59.4683C38.9354 59.2527 39.205 58.9833 39.4027 58.6241C39.5824 58.2829 39.6723 57.9596 39.6723 57.5644C39.6723 57.4387 39.6723 57.3489 39.6723 57.2412L39.6903 57.2232Z" fill="#FFB319" />
    <path d="M84.3678 105.968C78.7965 106.202 73.441 100.975 73.5668 95.3897C73.6207 92.6417 69.7928 92.1388 69.2895 94.9047C68.2652 100.634 67.0071 106.525 63.5566 111.303C63.1612 111.572 62.8557 111.985 62.676 112.452C61.4359 114.141 63.3409 116.026 65.0303 115.631C70.1522 117.697 76.2266 120.463 77.5206 126.318C78.1136 128.994 82.1033 128.491 81.7798 125.707C81.1149 119.888 82.7862 114.033 86.3806 109.399C87.6206 107.8 86.111 105.897 84.3498 105.968H84.3678ZM68.0855 112.237C69.7748 109.507 70.9429 106.507 71.8235 103.4C73.9262 106.561 77.1971 108.914 80.9531 109.812C79.4256 112.488 78.3652 115.38 77.8081 118.397C75.1842 115.703 71.6618 113.799 68.0855 112.219V112.237Z" fill="black" />
  </g>
  <defs>
    <filter id="filter0_d_39718_56013" x="0.959961" y="0.983887" width="396.025" height="449.016" filterUnits="userSpaceOnUse" color-interpolation-filters="sRGB">
      <feFlood flood-opacity="0" result="BackgroundImageFix" />
      <feColorMatrix in="SourceAlpha" type="matrix" values="0 0 0 0 0 0 0 0 0 0 0 0 0 0 0 0 0 0 127 0" result="hardAlpha" />
      <feOffset dy="4" />
      <feGaussianBlur stdDeviation="3" />
      <feComposite in2="hardAlpha" operator="out" />
      <feColorMatrix type="matrix" values="0 0 0 0 0 0 0 0 0 0 0 0 0 0 0 0 0 0 0.35 0" />
      <feBlend mode="normal" in2="BackgroundImageFix" result="effect1_dropShadow_39718_56013" />
      <feBlend mode="normal" in="SourceGraphic" in2="effect1_dropShadow_39718_56013" result="shape" />
    </filter>
  </defs>
</svg>